# xmcd CD database file
#
# Track frame offsets:
#	150
#	10998
#	44415
#	55703
#	63096
#	92572
#	107141
#	120901
#	164266
#	187683
#	200247
#	213364
#	239327
#
# Disc length: 3291 seconds
#
# Revision: 0
# Processed by: cddbd v1.5.2PL0 Copyright (c) Steve Scherf et al.
# Submitted via: CDex 1.70beta3
#
DISCID=a60cd90d
DTITLE=Ramon Lopez Freedom Now Sextet - Valencia
DYEAR=2009
DGENRE=Jazz
TTITLE0=Alacant
TTITLE1=Cos I Anima
TTITLE2=Bullira El Mar
TTITLE3=Els Xiquets
TTITLE4=Misteri
TTITLE5=Horitzo
TTITLE6=Llum I Vent
TTITLE7=Llotja De La Seda
TTITLE8=Cova Del Bolomor
TTITLE9=Xabia
TTITLE10=Fets D' Amor
TTITLE11=Sis Poemes
TTITLE12=Canco De Comiat
EXTD=YEAR: 2009
EXTT0=
EXTT1=
EXTT2=
EXTT3=
EXTT4=
EXTT5=
EXTT6=
EXTT7=
EXTT8=
EXTT9=
EXTT10=
EXTT11=
EXTT12=
PLAYORDER=
